<svg height="113" viewBox="0 0 114 113" width="114" xmlns="http://www.w3.org/2000/svg"><g fill="none" fill-rule="evenodd" transform="translate(0 .253148)"><g transform="translate(20.090178)"><path d="m24.9198867 1.26111768c-2.6273277 16.11095342 5.1061354 28.47492302 23.2003934 37.09190972 17.6921663 8.4254979 25.4891749 21.8042447 23.3910298 40.1362405l-.1583871 1.2575844h-24.2094992c.7915445-6.0475267-.1011072-10.3265531-2.6779591-12.8370793-9.5555227-9.3095751-18.9748292-9.5173129-28.6077766-19.8377552-12.31631457-13.1953237-17.45827283-27.9540317-15.42587474-44.27612375l.21155899-1.53477637z" fill="#ff4c4c" fill-rule="nonzero"/><path d="m73 0v29.3209871h-29.320987v-29.3209871z" fill="#ffb500" fill-rule="nonzero"/><path d="m19.0109786 7.12730449c-.5273289 4.44386771.5423556 9.78525241 3.2090535 16.02415391 2.8507035 6.6693934 9.7007662 11.7137246 13.702455 15.1595105 4.0016888 3.4457858 4.0016888 3.8351781 4.8635781 5.4834035.8618894 1.6482254-.2867905 9.7552521-1.222476 9.8713937s-7.0997356.1590869-19.7797011-11.1601552c-10.70507747-9.5562849-15.659204-21.3490537-14.86237964-35.37830641z" fill="#2e53c2"/></g><path d="m60.4969478 92.831758c3.8396227 0 6.5896227 2.9316037 6.5896227 7.0566037 0 4.1768873-2.620283 7.1084903-6.4339623 7.1084903-2.7303188 0-4.08209-1.572028-4.5690375-2.427678l-.048887-.088831h-.1556604v8.146226h-2.0495283v-19.4575469h1.9716981v2.1273585h.1556604c.3372641-.4929245 1.6084906-2.4646226 4.5400943-2.4646226zm-55.20449497 0c2.33490566 0 4.59198113 1.3490566 4.90330187 3.7877358l-1.79009432.5188679c-.18160378-1.5825471-1.47877359-2.5424528-3.24292453-2.5424528-1.68632076 0-2.7759434.8301887-2.7759434 1.9976415 0 1.4760898 1.50385323 1.7857293 3.21513449 2.1069203l.41402635.0779108c2.15285406.4099173 4.46517881.9824998 4.46517881 3.9637535 0 2.542453-2.10141512 4.254717-5.24056606 4.254717-3.03537736 0-4.92924528-1.660377-5.24056604-4.073113l1.86792453-.466981c.15566038 1.816038 1.42688679 2.75 3.47641509 2.75 2.02358491 0 3.13915095-.985849 3.13915095-2.360849 0-1.690954-1.60801902-2.053094-3.38832579-2.411356l-.42984646-.086587c-2.08647359-.4247015-4.25022398-.9868111-4.25022398-3.7544156 0-2.2830189 2.0495283-3.7617924 4.87735849-3.7617924zm23.38415647 0c4.0731132 0 7.0306604 3.0353773 7.0306604 7.0825471 0 4.0471699-3.009434 7.0825469-7.0566038 7.0825469s-7.0306604-2.98349-7.0306604-7.0825469c0-4.0731132 3.0353774-7.0825471 7.0566038-7.0825471zm54.088929 0c3.9864512 0 6.3078743 2.7336283 6.4048536 6.6442501l.0031653.2566933v.7523586h-10.8443397c.0259434 3.009434 1.7900944 4.695755 4.5919812 4.695755 1.8262298 0 3.5077192-1.013183 4.0209475-2.760405l.0521657-.197143 1.9976415.466982c-.7523585 2.516509-2.9834906 4.306603-6.0966981 4.306603-4.0990566 0-6.6674529-2.879717-6.6674529-7.0306601 0-4.3066037 2.9575472-7.1344339 6.5377359-7.1344339zm13.0281631 0c2.3349057 0 4.5919816 1.3490566 4.9033016 3.7877358l-1.790094.5188679c-.1816038-1.5825471-1.4787736-2.5424528-3.2429245-2.5424528-1.6863208 0-2.7759434.8301887-2.7759434 1.9976415 0 3.4245286 8.0943399.5707547 8.0943399 6.1485846 0 2.542453-2.1014154 4.254717-5.2405663 4.254717-3.0353774 0-4.9292453-1.660377-5.2405661-4.073113l1.8679245-.466981c.1556604 1.816038 1.4268868 2.75 3.4764151 2.75 2.0235849 0 3.139151-.985849 3.139151-2.360849 0-1.742359-1.7072727-2.073884-3.5511271-2.444056l-.2411482-.048622c-2.0944266-.4253523-4.2761209-.980624-4.2761209-3.7596806 0-2.2830189 2.0495283-3.7617924 4.8773584-3.7617924zm12.1979746 0c2.334906 0 4.591981 1.3490566 4.903302 3.7877358l-1.790095.5188679c-.181603-1.5825471-1.478773-2.5424528-3.242924-2.5424528-1.686321 0-2.775943.8301887-2.775943 1.9976415 0 3.4245286 8.094339.5707547 8.094339 6.1485846 0 2.542453-2.101415 4.254717-5.240566 4.254717-3.035377 0-4.929245-1.660377-5.240566-4.073113l1.867925-.466981c.15566 1.816038 1.426886 2.75 3.476415 2.75 2.023585 0 3.139151-.985849 3.139151-2.360849 0-3.7877359-8.068397-.908019-8.068397-6.2523586 0-2.2830189 2.049529-3.7617924 4.877359-3.7617924zm-91.7205883-3.5801887v3.9174528h4.1509434v1.7382076h-4.1509434v7.8867923c0 1.45283.5966981 2.075472 2.0235849 2.075472h1.9457547v1.790094h-1.9198113c-2.4646227 0-4.0990566-1.115566-4.0990566-3.839622v-7.9127363h-2.5424529v-1.7382076h2.6721699v-3.9174528zm28.2874584 3.5801887v2.0495283h-1.2193397c-2.4646226 0-3.4764151 1.9976415-3.4764151 4.5660377v7.212264h-2.0495283v-13.4905659h2.0235849v2.2570755h.1556604c.389151-1.1415094 1.7122642-2.5943396 3.6839623-2.5943396zm5.6602386.3372641v13.4905659h-2.0495283v-11.7523583h-2.5424528v-1.7382076zm25.7190621-.3372641v2.0495283h-1.2193396c-2.4646226 0-3.4764151 1.9976415-3.4764151 4.5660377v7.212264h-2.0495283v-13.4905659h2.0235849v2.2570755h.1556604c.3891509-1.1415094 1.7122642-2.5943396 3.6839623-2.5943396zm-52.0480242 5.8034073c-.7856135 2.9319497.6300487 5.5673957 3.4116417 6.3127207 2.8066524.752041 5.3570895-.847551 6.1359883-3.754441.7721842-2.8818306-.6300486-5.5673956-3.436701-6.3194359-2.8066524-.7520402-5.3454595.904385-6.110929 3.7611562zm32.1682166.4562014c-.5766431 3.2703053 1.1339258 5.5213523 3.6377531 5.9628443 2.6060243.459512 4.8705863-1.327704 5.4066841-4.368066.5496129-3.1170094-1.0918374-5.4612434-3.6467632-5.9117457-2.7593198-.4865425-4.9066265 1.5320983-5.397674 4.3169674zm22.7005998-.8793119-.0390952.225993 8.6579657.7574738c.1149772-2.8025303-1.7057953-4.3160371-3.9284373-4.510493-2.1302276-.1863708-4.2221625 1.1488694-4.6904332 3.5270262zm-29.5775902-10.4652025c.8820755 0 1.504717.6485849 1.504717 1.4787736 0 .8561321-.6226415 1.504717-1.504717 1.504717-.856132 0-1.4787736-.6485849-1.4787736-1.504717 0-.8301887.6226416-1.4787736 1.4787736-1.4787736z" fill="#000" fill-rule="nonzero"/></g></svg>