<?xml version="1.0" encoding="UTF-8"?>
<svg width="114px" height="26px" viewBox="0 0 114 26" version="1.1" xmlns="http://www.w3.org/2000/svg" xmlns:xlink="http://www.w3.org/1999/xlink">
    <title>Group</title>
    <g id="Marketing-Materials" stroke="none" stroke-width="1" fill="none" fill-rule="evenodd">
        <g id="Artboard" transform="translate(-166.000000, -173.000000)" fill-rule="nonzero">
            <g id="Group" transform="translate(166.500000, 173.483491)">
                <path d="M5.24056604,19.2665094 C8.37971698,19.2665094 10.4811321,17.5542453 10.4811321,15.0117925 C10.4811321,9.43396228 2.38679245,12.2877359 2.38679245,8.86320756 C2.38679245,7.69575473 3.47641509,6.86556605 5.16273585,6.86556605 C6.92688679,6.86556605 8.2240566,7.82547171 8.40566038,9.40801888 L10.1957547,8.88915096 C9.88443396,6.45047171 7.62735849,5.10141511 5.29245283,5.10141511 C2.46462264,5.10141511 0.41509434,6.58018869 0.41509434,8.86320756 C0.41509434,14.2075472 8.48349057,11.3278302 8.48349057,15.1155661 C8.48349057,16.4905661 7.36792453,17.4764151 5.34433962,17.4764151 C3.29481132,17.4764151 2.02358491,16.5424528 1.86792453,14.7264151 L0,15.1933962 C0.311320755,17.6061321 2.20518868,19.2665094 5.24056604,19.2665094 Z" id="Path" fill="#FF4C4C"></path>
                <path d="M20.2404273,18.9292453 L20.2404273,17.139151 L18.2946726,17.139151 C16.8677858,17.139151 16.2710877,16.5165094 16.2710877,15.0636793 L16.2710877,7.17688681 L20.4220311,7.17688681 L20.4220311,5.43867926 L16.2710877,5.43867926 L16.2710877,1.52122643 L14.3512764,1.52122643 L14.3512764,5.43867926 L11.6791065,5.43867926 L11.6791065,7.17688681 L14.2215594,7.17688681 L14.2215594,15.0896227 C14.2215594,17.8136793 15.8559933,18.9292453 18.320616,18.9292453 L20.2404273,18.9292453 Z" id="Path" fill="#FF4C4C"></path>
                <path d="M28.6766093,5.10141511 C32.7497225,5.10141511 35.7072697,8.13679247 35.7072697,12.1839623 C35.7072697,16.2311321 32.6978357,19.2665094 28.6506659,19.2665094 C24.6034961,19.2665094 21.6200055,16.2830189 21.6200055,12.1839623 C21.6200055,8.11084907 24.6553829,5.10141511 28.6766093,5.10141511 Z M30.0007516,7.14366627 C27.1940992,6.39162603 24.6552921,8.0480512 23.8898226,10.9048224 C23.1042091,13.8367718 24.5198713,16.472218 27.3014643,17.2175436 C30.1081167,17.9695839 32.6585538,16.3699921 33.4374526,13.4631022 C34.2096368,10.5812716 32.807404,7.89570651 30.0007516,7.14366627 Z" id="Combined-Shape" fill="#FF4C4C"></path>
                <path d="M39.8627913,18.9292453 L39.8627913,11.7169811 C39.8627913,9.14858492 40.8745838,7.15094341 43.3392064,7.15094341 L44.5585461,7.15094341 L44.5585461,5.10141511 L43.6764706,5.10141511 C41.7047725,5.10141511 40.3816593,6.5542453 39.9925083,7.69575473 L39.8368479,7.69575473 L39.8368479,5.43867926 L37.813263,5.43867926 L37.813263,18.9292453 L39.8627913,18.9292453 Z" id="Path" fill="#FF4C4C"></path>
                <polygon id="Path" fill="#FF4C4C" points="50.2187847 18.9292453 50.2187847 5.43867926 45.6268036 5.43867926 45.6268036 7.17688681 48.1692564 7.17688681 48.1692564 18.9292453"></polygon>
                <path d="M60.4969478,5.10141511 C64.3365705,5.10141511 67.0865705,8.03301888 67.0865705,12.1580189 C67.0865705,16.3349057 64.4662875,19.2665094 60.6526082,19.2665094 C57.824778,19.2665094 56.4757214,17.5801887 56.0346837,16.75 L56.0346837,16.75 L55.8790233,16.75 L55.8790233,24.8962264 L53.829495,24.8962264 L53.829495,5.43867926 L55.8011931,5.43867926 L55.8011931,7.56603775 L55.9568535,7.56603775 C56.2941176,7.07311322 57.5653441,5.10141511 60.4969478,5.10141511 Z M61.4557132,7.04405645 C58.6963934,6.55751391 56.5490867,8.57615477 56.0580392,11.3610239 C55.4813961,14.6313289 57.191965,16.8823758 59.6957923,17.3238681 C62.3018166,17.7833805 64.5663786,15.9961638 65.1024764,12.9558022 C65.6520893,9.83879273 64.010639,7.49455879 61.4557132,7.04405645 Z" id="Combined-Shape" fill="#FF4C4C"></path>
                <path d="M71.2420921,18.9292453 L71.2420921,11.7169811 C71.2420921,9.14858492 72.2538846,7.15094341 74.7185072,7.15094341 L75.9378468,7.15094341 L75.9378468,5.10141511 L75.0557714,5.10141511 C73.0840733,5.10141511 71.76096,6.5542453 71.3718091,7.69575473 L71.2161487,7.69575473 L71.2161487,5.43867926 L69.1925638,5.43867926 L69.1925638,18.9292453 L71.2420921,18.9292453 Z" id="Path" fill="#FF4C4C"></path>
                <path d="M82.7655383,5.10141511 C86.8386515,5.10141511 89.1735572,7.95518869 89.1735572,12.0023585 L89.1735572,12.0023585 L89.1735572,12.754717 L78.3292175,12.754717 C78.3551609,15.764151 80.1193119,17.4504717 82.9211987,17.4504717 C84.8150666,17.4504717 86.5532741,16.3608491 86.9943119,14.4929245 L86.9943119,14.4929245 L88.9919534,14.9599057 C88.2395949,17.4764151 86.0084628,19.2665094 82.8952553,19.2665094 C78.7961987,19.2665094 76.2278024,16.3867925 76.2278024,12.2358491 C76.2278024,7.9292453 79.1853496,5.10141511 82.7655383,5.10141511 Z M83.4490722,6.95468571 C81.2522749,6.76249085 79.0962012,8.18849358 78.7195438,10.7077049 L78.7195438,10.7077049 L87.3775095,11.4651788 C87.4924867,8.66264842 85.6717142,7.14914168 83.4490722,6.95468571 Z" id="Combined-Shape" fill="#FF4C4C"></path>
                <path d="M95.7418147,19.2665094 C98.8809656,19.2665094 100.982381,17.5542453 100.982381,15.0117925 C100.982381,9.43396228 92.8880411,12.2877359 92.8880411,8.86320756 C92.8880411,7.69575473 93.9776637,6.86556605 95.6639845,6.86556605 C97.4281354,6.86556605 98.7253052,7.82547171 98.906909,9.40801888 L100.697003,8.88915096 C100.385683,6.45047171 98.1286071,5.10141511 95.7937014,5.10141511 C92.9658713,5.10141511 90.916343,6.58018869 90.916343,8.86320756 C90.916343,11.6422642 93.0980373,12.1975359 95.1924639,12.622888 L95.4336121,12.6715097 C97.2774665,13.0416821 98.9847392,13.3732076 98.9847392,15.1155661 C98.9847392,16.4905661 97.8691731,17.4764151 95.8455882,17.4764151 C93.7960599,17.4764151 92.5248335,16.5424528 92.3691731,14.7264151 L90.5012486,15.1933962 C90.8125694,17.6061321 92.7064373,19.2665094 95.7418147,19.2665094 Z" id="Path" fill="#FF4C4C"></path>
                <path d="M107.939789,19.2665094 C111.07894,19.2665094 113.180355,17.5542453 113.180355,15.0117925 C113.180355,9.43396228 105.086016,12.2877359 105.086016,8.86320756 C105.086016,7.69575473 106.175638,6.86556605 107.861959,6.86556605 C109.62611,6.86556605 110.92328,7.82547171 111.104883,9.40801888 L112.894978,8.88915096 C112.583657,6.45047171 110.326582,5.10141511 107.991676,5.10141511 C105.163846,5.10141511 103.114317,6.58018869 103.114317,8.86320756 C103.114317,14.2075472 111.182714,11.3278302 111.182714,15.1155661 C111.182714,16.4905661 110.067148,17.4764151 108.043563,17.4764151 C105.994034,17.4764151 104.722808,16.5424528 104.567148,14.7264151 L102.699223,15.1933962 C103.010544,17.6061321 104.904412,19.2665094 107.939789,19.2665094 Z" id="Path" fill="#FF4C4C"></path>
                <polygon id="SP-Logo-[WHITE]-path" fill="#FFB500" points="50.6857658 0 50.6857658 3.00000001 47.6857658 3.00000001 47.6857658 0"></polygon>
            </g>
        </g>
    </g>
</svg>