<?xml version="1.0" encoding="UTF-8"?>
<svg width="74px" height="80px" viewBox="0 0 74 80" version="1.1" xmlns="http://www.w3.org/2000/svg" xmlns:xlink="http://www.w3.org/1999/xlink">
    <title>Group 2</title>
    <g id="Marketing-Materials" stroke="none" stroke-width="1" fill="none" fill-rule="evenodd">
        <g id="Artboard" transform="translate(-42.000000, -114.000000)">
            <g id="2" transform="translate(22.000000, 114.253148)">
                <g id="Group-2" transform="translate(20.090178, 0.000000)">
                    <path d="M24.9198867,1.26111768 C22.292559,17.3720711 30.0260221,29.7360407 48.1202801,38.3530274 C65.8124464,46.7785253 73.609455,60.1572721 71.5113099,78.4892679 L71.3529228,79.7468523 L47.1434236,79.7468523 C47.9349681,73.6993256 47.0423164,69.4202992 44.4654645,66.909773 C34.9099418,57.6001979 25.4906353,57.3924601 15.8576879,47.0720178 C3.54137333,33.8766941 -1.60058493,19.1179861 0.43181316,2.79589405 L0.643372148,1.26111768 L24.9198867,1.26111768 Z" id="SP-Logo-[WHITE]-path" fill="#FF4C4C" fill-rule="nonzero"></path>
                    <polygon id="SP-Logo-[WHITE]-path" fill="#FFB500" fill-rule="nonzero" points="73 0 73 29.3209871 43.679013 29.3209871 43.679013 0"></polygon>
                    <path d="M19.0109786,7.12730449 C18.4836497,11.5711722 19.5533342,16.9125569 22.2200321,23.1514584 C25.0707356,29.8208518 31.9207983,34.865183 35.9224871,38.3109689 C39.9241759,41.7567547 39.9241759,42.146147 40.7860652,43.7943724 C41.6479546,45.4425978 40.4992747,53.5496245 39.5635892,53.6657661 C38.6279037,53.7819077 32.4638536,53.824853 19.7838881,42.5056109 C9.07881063,32.949326 4.1246841,21.1565572 4.92150846,7.12730449 L19.0109786,7.12730449 Z" id="Line-6" fill="#2E53C2"></path>
                </g>
            </g>
        </g>
    </g>
</svg>