<svg viewBox="0 0 141 26" xmlns="http://www.w3.org/2000/svg"><g fill="none" fill-rule="evenodd" transform="translate(.0383 .4822)"><path d="m32.0868558 19.25c3.1391509 0 5.240566-1.7122642 5.240566-4.254717 0-5.57783017-8.0943396-2.7240566-8.0943396-6.14858489 0-1.16745283 1.0896227-1.99764151 2.7759434-1.99764151 1.764151 0 3.0613208.95990566 3.2429245 2.54245283l1.7900944-.51886792c-.3113208-2.43867925-2.5683962-3.78773585-4.9033019-3.78773585-2.8278302 0-4.8773585 1.47877359-4.8773585 3.76179245 0 5.34433959 8.0683962 2.46462269 8.0683962 6.25235849 0 1.375-1.115566 2.3608491-3.1391509 2.3608491-2.0495283 0-3.3207547-.9339623-3.4764151-2.75l-1.8679245.4669811c.3113207 2.4127358 2.2051886 4.0731132 5.240566 4.0731132zm14.9998613-.3372642v-1.7900943h-1.9457547c-1.4268868 0-2.023585-.6226415-2.023585-2.0754717v-7.88679244h4.1509434v-1.73820755h-4.1509434v-3.91745283h-1.9198113v3.91745283h-2.6721698v1.73820755h2.5424528v7.91273584c0 2.7240566 1.634434 3.8396226 4.0990566 3.8396226zm8.436182-13.82783014c4.0731132 0 7.0306604 3.03537736 7.0306604 7.08254714 0 4.0471698-3.009434 7.0825472-7.0566038 7.0825472s-7.0306604-2.9834906-7.0306604-7.0825472c0-4.07311318 3.0353774-7.08254714 7.0566038-7.08254714zm1.3241422 2.04225116c-2.8066524-.75204024-5.3454594.90438494-6.1109289 3.76115618-.7856135 2.9319493.6300486 5.5673956 3.4116416 6.3127212 2.8066524.7520402 5.3570896-.8475515 6.1359884-3.7544415.7721842-2.8818306-.6300487-5.56739563-3.4367011-6.31943588zm9.8620398 11.78557898v-7.2122641c0-2.56839623 1.0117925-4.56603774 3.4764151-4.56603774h1.2193396v-2.0495283h-.8820754c-1.9716982 0-3.2948114 1.45283019-3.6839623 2.59433962h-.1556604v-2.25707547h-2.0235849v13.49056599zm9.3182575-15.92924523c.8820755 0 1.504717-.64858491 1.504717-1.50471699 0-.83018867-.6226415-1.47877358-1.504717-1.47877358-.8561321 0-1.4787736.64858491-1.4787736 1.47877358 0 .85613208.6226415 1.50471699 1.4787736 1.50471699zm1.0377358 15.92924523v-13.49056599h-4.5919811v1.73820755h2.5424528v11.75235844zm10.2781632-13.82783014c3.8396226 0 6.5896226 2.93160377 6.5896226 7.05660374 0 4.1768868-2.620283 7.1084906-6.4339622 7.1084906-2.8278302 0-4.1768868-1.6863208-4.6179246-2.5165094h-.1556603v8.1462264h-2.0495283v-19.45754719h1.9716981v2.12735849h.1556604c.3372641-.49292453 1.6084905-2.46462264 4.5400943-2.46462264zm.9587654 1.94264134c-2.7593199-.48654254-4.9066265 1.53209832-5.3976741 4.3169674-.576643 3.270305 1.1339259 5.521352 3.6377532 5.9628443 2.6060242.4595124 4.8705863-1.3277043 5.4066841-4.368066.5496128-3.11700942-1.0918374-5.46124335-3.6467632-5.9117457zm9.7863789 11.8851888v-7.2122641c0-2.56839623 1.0117924-4.56603774 3.4764151-4.56603774h1.21934v-2.0495283h-.882076c-1.971698 0-3.2948112 1.45283019-3.6839621 2.59433962h-.1556604v-2.25707547h-2.0235849v13.49056599zm11.5234461-13.82783014c4.073113 0 6.408019 2.85377359 6.408019 6.90094344v.7523584h-10.84434c.025944 3.009434 1.790095 4.6957548 4.591981 4.6957548 1.893868 0 3.632076-1.0896227 4.073114-2.9575472l1.997641.4669811c-.752358 2.5165095-2.98349 4.3066038-6.096698 4.3066038-4.099057 0-6.667453-2.879717-6.667453-7.0306604 0-4.30660375 2.957547-7.13443394 6.537736-7.13443394zm.683534 1.8532706c-2.196797-.19219485-4.352871 1.23380787-4.729528 3.75301924l8.657965.7574738c.114977-2.80253033-1.705795-4.31603706-3.928437-4.51049304zm12.292742 12.31182374c3.139151 0 5.240566-1.7122642 5.240566-4.254717 0-5.57783017-8.094339-2.7240566-8.094339-6.14858489 0-1.16745283 1.089622-1.99764151 2.775943-1.99764151 1.764151 0 3.061321.95990566 3.242925 2.54245283l1.790094-.51886792c-.311321-2.43867925-2.568396-3.78773585-4.903302-3.78773585-2.82783 0-4.877358 1.47877359-4.877358 3.76179245 0 2.77905659 2.181694 3.33432829 4.276121 3.75968049l.241148.0486216c1.843854.3701724 3.551127.7016979 3.551127 2.4440564 0 1.375-1.115566 2.3608491-3.139151 2.3608491-2.049528 0-3.320755-.9339623-3.476415-2.75l-1.867925.4669811c.311321 2.4127358 2.205189 4.0731132 5.240566 4.0731132zm12.197975 0c3.139151 0 5.240566-1.7122642 5.240566-4.254717 0-5.57783017-8.09434-2.7240566-8.09434-6.14858489 0-1.16745283 1.089623-1.99764151 2.775944-1.99764151 1.764151 0 3.06132.95990566 3.242924 2.54245283l1.790095-.51886792c-.311321-2.43867925-2.568397-3.78773585-4.903302-3.78773585-2.827831 0-4.877359 1.47877359-4.877359 3.76179245 0 5.34433959 8.068396 2.46462269 8.068396 6.25235849 0 1.375-1.115566 2.3608491-3.139151 2.3608491-2.049528 0-3.320754-.9339623-3.476415-2.75l-1.867924.4669811c.311321 2.4127358 2.205189 4.0731132 5.240566 4.0731132z" fill="#000" fill-rule="nonzero"/><g transform="translate(0 .9882)"><path d="m.18655762.3200756h6.75176865c-.42299995 1.96442221-.06803604 3.77055648 1.06489172 5.41840283 2.79599861 4.06678713 7.52444201 3.73038987 10.30589451 7.57297707 1.4487838 1.9959883 1.9631638 4.3055032 1.54314 6.9285445h-6.7331304c.1055961-1.5532613-.0665881-2.5529491-.5165528-2.9990634-2.65261212-2.6299134-5.52436218-2.370338-8.72546914-5.8350753-3.15171475-3.4112774-4.3818956-7.1065393-3.69054254-11.0857857z" fill="#e73939"/><path d="m5.25713613 1.60457232c-.03977651 1.84382799.42687347 3.38469071 1.39994992 4.62258816.67258934.85563332 1.35667656 1.47075437 1.98571415 1.97754954l.33725196.26648518.63214746.48758019c.64903588.50575869 1.17048608.96092324 1.45450478 1.58368561.0678085 1.8216132-.2593852 2.8517813-1.1634346 2.6246555l-.04367354-.0042988-.07170009-.0133098-.15707843-.0382166-.13572351-.03855-.24663899-.0789834-.19111416-.0676655-.32325041-.1255633-.23787206-.1006564-.25415804-.1149379c-.0436401-.0203809-.08790123-.0413827-.13275462-.0630183l-.27599719-.1375228c-.0471073-.0242225-.09474931-.0491047-.14289724-.0746595l-.29472854-.1615027c-.05005654-.0282967-.10056145-.0572919-.15148597-.0869983l-.31035208-.1868778c-.73482935-.4564476-1.54062006-1.0573784-2.33841111-1.838239-2.55064252-2.49651375-3.62879416-5.30702845-3.23445491-8.43154408z" fill="#2e53c2"/><path d="m20.24 0v4.44175803c0 1.65685425-1.3431458 3-3 3h-1.1547341c-2.209139 0-4-1.790861-4-4v-3.44175803z" fill="#ffb500" fill-rule="nonzero"/></g></g></svg>